<svg width="58" height="58" viewBox="0 0 58 58" fill="none" xmlns="http://www.w3.org/2000/svg">
<g filter="url(#filter0_d_42_45)">
<path d="M40.5635 2H17.4365C10.0157 2 4 8.01572 4 15.4365V38.5635C4 45.9843 10.0157 52 17.4365 52H40.5635C47.9843 52 54 45.9843 54 38.5635V15.4365C54 8.01572 47.9843 2 40.5635 2Z" fill="#F5F6F8"/>
<path d="M11.0235 26.2777V18.0424C11.0234 17.9122 11.0747 17.7874 11.1662 17.6948C11.2577 17.6023 11.3819 17.5496 11.512 17.5481L16.0104 17.4813C16.076 17.4804 16.1411 17.4926 16.2019 17.5171C16.2627 17.5416 16.3181 17.5779 16.3647 17.624C16.4114 17.67 16.4485 17.7249 16.4737 17.7854C16.499 17.8459 16.5121 17.9108 16.512 17.9764V22.1295C16.5119 22.1981 16.4973 22.2658 16.4693 22.3284C16.4412 22.391 16.4003 22.447 16.3492 22.4927L11.8516 26.6458C11.7807 26.7108 11.6923 26.7537 11.5973 26.7691C11.5023 26.7846 11.4049 26.7721 11.317 26.733C11.2291 26.6939 11.1544 26.63 11.1023 26.5491C11.0502 26.4683 11.0228 26.3739 11.0235 26.2777V26.2777Z" fill="#6B64DD"/>
<path d="M29.4365 29.9194C29.4747 29.9626 29.4997 30.0159 29.5085 30.073C29.5173 30.13 29.5095 30.1884 29.4861 30.2412C29.4627 30.2939 29.4246 30.3388 29.3764 30.3706C29.3282 30.4023 29.2719 30.4195 29.2142 30.4202L24.2345 30.4544V42.3257C24.2345 42.6514 24.1051 42.9638 23.8748 43.1941C23.6445 43.4243 23.3322 43.5537 23.0065 43.5537H19.8998C19.5975 43.5537 19.3075 43.4336 19.0937 43.2198C18.8799 43.006 18.7598 42.716 18.7598 42.4137V29.5993C18.7597 29.4846 18.7835 29.3711 18.8294 29.266C18.8754 29.1609 18.9426 29.0665 19.0269 28.9886L23.7133 24.6645C23.7588 24.6229 23.8155 24.5953 23.8763 24.5852C23.9372 24.5752 23.9996 24.583 24.0561 24.6077C24.1126 24.6325 24.1607 24.6731 24.1945 24.7247C24.2284 24.7762 24.2465 24.8365 24.2467 24.8982V25.5595C24.2467 25.6597 24.2865 25.7558 24.3574 25.8266C24.4283 25.8975 24.5244 25.9373 24.6246 25.9373H25.5497C25.6292 25.9372 25.7079 25.9537 25.7807 25.9858C25.8535 26.0179 25.9188 26.0649 25.9723 26.1238L29.4365 29.9194Z" fill="#3C3AA4"/>
<path d="M48.0015 43.5904L42.938 43.535C42.8216 43.5338 42.7067 43.5086 42.6005 43.461C42.4943 43.4133 42.3991 43.3443 42.3208 43.2582L36.1196 36.3893L25.7125 24.9845L24.8167 24.0464C24.686 23.9038 24.5095 23.8116 24.3178 23.7859C24.1261 23.7601 23.9315 23.8025 23.7678 23.9055L23.6212 24.0155L18.7605 28.4845V28.4658L10.5357 36.0301C9.99095 36.531 9.16685 36.3502 9.17092 35.6099L9.13916 30.2573C9.13968 30.1409 9.16425 30.0258 9.21133 29.9193C9.25842 29.8128 9.327 29.7172 9.41278 29.6384L18.7597 21.0472L23.6269 16.5766L23.6343 16.57C23.7995 16.4215 24.0164 16.3438 24.2384 16.3537C24.4603 16.3636 24.6695 16.4603 24.8208 16.623C24.8208 16.623 36.9787 29.6588 36.973 29.6604L48.631 42.1653C48.744 42.2867 48.8188 42.4386 48.8463 42.6021C48.8738 42.7656 48.8528 42.9336 48.7858 43.0853C48.7188 43.2369 48.6088 43.3656 48.4694 43.4554C48.33 43.5452 48.1673 43.5921 48.0015 43.5904V43.5904Z" fill="#6B64DD"/>
<path d="M18.7596 19.7679V10.5366C18.7596 10.2775 18.8626 10.0289 19.0458 9.84566C19.2291 9.6624 19.4777 9.55945 19.7368 9.55945H31.5756C44.0349 9.55945 43.4437 20.048 43.4437 20.048C43.4437 20.048 43.7645 26.5928 37.9192 29.2801C37.8183 29.326 37.7056 29.339 37.5969 29.3174C37.4882 29.2958 37.389 29.2406 37.3134 29.1596L34.3126 25.956C34.2752 25.9167 34.2483 25.8687 34.2342 25.8164C34.2201 25.7641 34.2193 25.7091 34.2318 25.6564C34.2444 25.6036 34.2699 25.5549 34.306 25.5145C34.3421 25.4741 34.3878 25.4434 34.4388 25.4251C38.1953 24 37.9135 20.0888 37.9135 20.0888C37.9135 20.0888 38.3679 14.2394 31.1041 14.2394H24.6017C24.555 14.2394 24.5089 14.2486 24.4658 14.2664C24.4227 14.2843 24.3836 14.3104 24.3506 14.3434C24.3176 14.3764 24.2915 14.4155 24.2736 14.4586C24.2558 14.5017 24.2466 14.5478 24.2466 14.5945V14.9137C24.2465 15.0348 24.2213 15.1546 24.1725 15.2655C24.1237 15.3764 24.0524 15.4759 23.9632 15.5578L19.1749 19.9552C19.1398 19.9898 19.0951 20.0129 19.0466 20.0216C18.9981 20.0303 18.9481 20.0241 18.9031 20.0038C18.8582 19.9835 18.8205 19.9502 18.7949 19.9081C18.7693 19.866 18.757 19.8171 18.7596 19.7679V19.7679Z" fill="#3C3AA4"/>
</g>
<defs>
<filter id="filter0_d_42_45" x="0" y="0" width="58" height="58" filterUnits="userSpaceOnUse" color-interpolation-filters="sRGB">
<feFlood flood-opacity="0" result="BackgroundImageFix"/>
<feColorMatrix in="SourceAlpha" type="matrix" values="0 0 0 0 0 0 0 0 0 0 0 0 0 0 0 0 0 0 127 0" result="hardAlpha"/>
<feOffset dy="2"/>
<feGaussianBlur stdDeviation="2"/>
<feComposite in2="hardAlpha" operator="out"/>
<feColorMatrix type="matrix" values="0 0 0 0 0 0 0 0 0 0 0 0 0 0 0 0 0 0 0.2 0"/>
<feBlend mode="normal" in2="BackgroundImageFix" result="effect1_dropShadow_42_45"/>
<feBlend mode="normal" in="SourceGraphic" in2="effect1_dropShadow_42_45" result="shape"/>
</filter>
</defs>
</svg>
